Coordinates
version=1
nRows=10
nColumns=22
inDegrees=yes

Units are S.I. units (second, meters, Newtons, ...)
If the header above contains a line with 'inDegrees', this indicates whether rotational values are in degrees (yes) or radians (no).

endheader
time	pelvis_tilt	pelvis_list	pelvis_rotation	pelvis_tx	pelvis_ty	pelvis_tz	hip_flexion_r	hip_adduction_r	hip_rotation_r	knee_angle_r	ankle_angle_r	subtalar_angle_r	hip_flexion_l	hip_adduction_l	hip_rotation_l	knee_angle_l	ankle_angle_l	subtalar_angle_l	lumbar_extension	lumbar_bending	lumbar_rotation
      0.01000000	     -0.12262393	     -4.86949510	      2.25492120	      1.01932148	      1.01500721	      0.19339144	      2.09318888	      2.49464869	     -6.71433220	    -16.31887364	     10.91201690	      5.79533394	     -2.35231238	     -8.12869007	    -10.23910968	     -9.90626361	     11.45643490	      1.71686402	     -3.39813066	      1.55855296	     -1.71214436
      0.02000000	     -0.03727345	     -4.84578719	      2.20687900	      1.01969995	      1.01505507	      0.19342457	      2.07529360	      2.46129888	     -6.82707668	    -16.47201426	     10.94768316	      5.81380982	     -2.48002788	     -8.10586225	    -10.31015808	     -9.90734912	     11.46913423	      1.73993403	     -3.46958213	      1.54332207	     -1.64979742
      0.03000000	      0.03308130	     -4.80253769	      2.15837229	      1.02012039	      1.01506008	      0.19344654	      2.08813904	      2.40734978	     -6.93922275	    -16.65641558	     10.97363526	      5.77075132	     -2.58953299	     -8.06103758	    -10.36529361	     -9.91892447	     11.48211200	      1.76540493	     -3.52128466	      1.50506246	     -1.58162386
      0.04000000	      0.11219851	     -4.74438631	      2.11853780	      1.02057403	      1.01505536	      0.19344722	      2.09302117	      2.34304450	     -7.02843450	    -16.84756723	     10.98587943	      5.65063474	     -2.70209126	     -8.00178305	    -10.41420498	     -9.94420039	     11.50493068	      1.79435722	     -3.58187876	      1.45087249	     -1.52911864
      0.05000000	      0.19840451	     -4.67304857	      2.09423728	      1.02105660	      1.01503868	      0.19343358	      2.07995350	      2.27465060	     -7.07888749	    -17.02544726	     10.97131365	      5.41390355	     -2.81611377	     -7.93048319	    -10.44125563	     -9.97808076	     11.52827784	      1.83160368	     -3.64948875	      1.38015926	     -1.49584238
      0.06000000	      0.28323916	     -4.60193925	      2.08877950	      1.02153914	      1.01500054	      0.19338977	      2.05684419	      2.21550334	     -7.09408655	    -17.18200765	     10.91466640	      5.05428175	     -2.91569574	     -7.86159810	    -10.43335811	    -10.03043552	     11.54886646	      1.87263934	     -3.71660198	      1.30956337	     -1.47194699
      0.07000000	      0.35931864	     -4.51433154	      2.10474390	      1.02201992	      1.01492589	      0.19330698	      2.03062348	      2.14596364	     -7.06980079	    -17.32173799	     10.84172546	      4.65110038	     -2.99574802	     -7.77645446	    -10.41067186	    -10.09240250	     11.58802513	      1.90437113	     -3.77419065	      1.22088855	     -1.48854893
      0.08000000	      0.42902064	     -4.40986943	      2.13857409	      1.02249445	      1.01482534	      0.19318351	      1.99846397	      2.06334106	     -7.01783172	    -17.44344039	     10.77398394	      4.21545605	     -3.06071610	     -7.67341964	    -10.35902251	    -10.16331137	     11.62503680	      1.93366501	     -3.82623162	      1.11480323	     -1.52776824
      0.09000000	      0.49013476	     -4.29590641	      2.19266783	      1.02296204	      1.01470029	      0.19301849	      1.96144535	      1.97422753	     -6.94689447	    -17.54509713	     10.70598711	      3.75482515	     -3.11188715	     -7.56035630	    -10.28256582	    -10.23347678	     11.66702293	      1.96186852	     -3.86962964	      0.99812618	     -1.59071008
      0.10000000	      0.54320096	     -4.16767915	      2.25985538	      1.02343178	      1.01455320	      0.19279937	      1.92614987	      1.86666127	     -6.87567318	    -17.64360089	     10.66447898	      3.35247845	     -3.16299094	     -7.42805515	    -10.18337488	    -10.28294589	     11.73039984	      1.98493364	     -3.90300763	      0.86936725	     -1.67873912
